<?xml version="1.0" encoding="UTF-8"?>
<svg viewBox="0 0 140 190" xmlns="http://www.w3.org/2000/svg">
 <defs>
  <linearGradient id="a" x1="2" x2="109" y1="62.1" y2="127.7" gradientUnits="userSpaceOnUse">
   <stop stop-color="#ebf0d0" offset="0"/>
   <stop stop-color="#ffffeb" offset="1"/>
  </linearGradient>
 </defs>
 <path d="m21 5h103c8.864 0 16 7.136 16 16v153c0 8.864-7.136 16-16 16h-103c-8.864 0-16-7.136-16-16v-153c0-8.864 7.136-16 16-16z" fill-opacity=".49804"/>
 <path d="m17 1h103c8.864 0 16 7.136 16 16v153c0 8.864-7.136 16-16 16h-103c-8.864 0-16-7.136-16-16v-153c0-8.864 7.136-16 16-16z" fill="#fff"/>
 <path d="m19 3h103c8.864 0 16 7.136 16 16v153c0 8.864-7.136 16-16 16h-103c-8.864 0-16-7.136-16-16v-153c0-8.864 7.136-16 16-16z" fill="#c7891f"/>
 <path d="m18 2h103c8.864 0 16 7.136 16 16v153c0 8.864-7.136 16-16 16h-103c-8.864 0-16-7.136-16-16v-153c0-8.864 7.136-16 16-16z" fill="url(#a)"/>
 <path d="m53 31c-9.4007 0-17 7.5993-17 17v93c0 9.4007 7.5993 17 17 17h33c9.4007 0 17-7.5993 17-17v-93c0-9.4007-7.5993-17-17-17h-33zm0 2h33c8.3273 0 15 6.6727 15 15v93c0 8.3273-6.6727 15-15 15h-33c-8.3273 0-15-6.6727-15-15v-93c0-8.3273 6.6727-15 15-15z" fill="#4f00a4"/>
 <g transform="matrix(.59314 0 0 .23894 -103.05 9.256)">
  <path d="m260.18 149.6c-4.8362 19.241-19.676 52.006-10.275 62.122 5.7065 4.6568 8.4221-4.8759 9.5723-11.187h0.23038c-0.00865 1.1867-0.2133 24.4-0.81785 25.773-1.3264 3.0135-3.0065 2.7811-3.0065 2.7811l0.03456 3.2811 8.7775-0.09375 0.03456-3.2499s-1.6686 0.2011-2.995-2.8124c-0.60464-1.3738-0.82077-24.54-0.82937-25.711h0.09215c0.92901 5.157 4.4542 15.833 8.3321 11.767 11.339-11.397-5.358-43.83-9.1499-62.671z" fill-rule="evenodd"/>
 </g>
 <g transform="matrix(-.59314 0 0 -.23894 207.41 177.52)">
  <path d="m260.18 149.6c-4.8362 19.241-19.676 52.006-10.275 62.122 5.7065 4.6568 8.4221-4.8759 9.5723-11.187h0.23038c-0.00865 1.1867-0.2133 24.4-0.81785 25.773-1.3264 3.0135-3.0065 2.7811-3.0065 2.7811l0.03456 3.2811 8.7775-0.09375 0.03456-3.2499s-1.6686 0.2011-2.995-2.8124c-0.60464-1.3738-0.82077-24.54-0.82937-25.711h0.09215c0.92901 5.157 4.4542 15.833 8.3321 11.767 11.339-11.397-5.358-43.83-9.1499-62.671z" fill-rule="evenodd"/>
 </g>
 <g transform="matrix(.59314 0 0 .23894 -67.053 9.256)">
  <path d="m260.18 149.6c-4.8362 19.241-19.676 52.006-10.275 62.122 5.7065 4.6568 8.4221-4.8759 9.5723-11.187h0.23038c-0.00865 1.1867-0.2133 24.4-0.81785 25.773-1.3264 3.0135-3.0065 2.7811-3.0065 2.7811l0.03456 3.2811 8.7775-0.09375 0.03456-3.2499s-1.6686 0.2011-2.995-2.8124c-0.60464-1.3738-0.82077-24.54-0.82937-25.711h0.09215c0.92901 5.157 4.4542 15.833 8.3321 11.767 11.339-11.397-5.358-43.83-9.1499-62.671z" fill-rule="evenodd"/>
 </g>
 <g transform="matrix(-.59314 0 0 -.23894 242.41 177.52)">
  <path d="m260.18 149.6c-4.8362 19.241-19.676 52.006-10.275 62.122 5.7065 4.6568 8.4221-4.8759 9.5723-11.187h0.23038c-0.00865 1.1867-0.2133 24.4-0.81785 25.773-1.3264 3.0135-3.0065 2.7811-3.0065 2.7811l0.03456 3.2811 8.7775-0.09375 0.03456-3.2499s-1.6686 0.2011-2.995-2.8124c-0.60464-1.3738-0.82077-24.54-0.82937-25.711h0.09215c0.92901 5.157 4.4542 15.833 8.3321 11.767 11.339-11.397-5.358-43.83-9.1499-62.671z" fill-rule="evenodd"/>
 </g>
 <path d="m20.644 48.665c-4.9243 7.8247-20.035 21.149-10.462 25.263 5.8105 1.8937 8.5757-1.9828 9.7468-4.5494h0.23457c-0.00881 0.4826-0.21718 9.9226-0.83276 10.481-1.3506 1.2255-3.0613 1.131-3.0613 1.131l0.03519 1.3343 8.9375-0.03813 0.03519-1.3216s-1.699 0.08178-3.0496-1.1437c-0.61567-0.55866-0.83573-9.9796-0.84449-10.456h0.09383c0.94595 2.0972 4.5354 6.4387 8.484 4.7853 11.546-4.6349-5.4557-17.824-9.3167-25.486z" fill-rule="evenodd"/>
 <path d="m21.069 27.429c-1.1186 1e-5 -1.9604 0.44207-2.5252 1.3262-0.55379 0.87073-0.83067 2.1835-0.83066 3.9383s0.27688 3.0743 0.83066 3.9584c0.56484 0.87073 1.4066 1.3061 2.5252 1.3061 1.1297 0 1.9714-0.43535 2.5252-1.3061 0.56483-0.8841 0.84726-2.2036 0.84727-3.9584s-0.28244-3.0676-0.84727-3.9383c-0.55379-0.8841-1.3955-1.3262-2.5252-1.3262m7.9079-14.407v5.5458c-1.0522-0.60278-2.0434-1.0448-2.9738-1.3262-0.93036-0.29468-1.8386-0.44203-2.7246-0.44205-1.905 2e-5 -3.3891 0.64301-4.4524 1.929-1.0633 1.2726-1.6835 3.1681-1.8607 5.6865 0.73097-0.65638 1.5229-1.1453 2.3757-1.4668 0.8528-0.33488 1.7831-0.50232 2.791-0.50234 2.5363 2e-5 4.5797 0.89753 6.1303 2.6925 1.5616 1.795 2.3424 4.146 2.3425 7.0528-2e-5 3.215-0.86945 5.7936-2.6083 7.736-1.7389 1.929-4.0703 2.8935-6.9942 2.8935-3.223 0-5.7205-1.3128-7.4926-3.9383-1.761-2.639-2.6415-6.3764-2.6415-11.212 0-4.9564 1.03-8.8478 3.0901-11.674 2.0711-2.8399 4.9064-4.2598 8.506-4.2598 1.1408 3e-5 2.2483 0.1072 3.3226 0.3215s2.1376 0.53586 3.1897 0.9645"/>
 <path d="m118.04 140c4.9243-7.8247 20.035-21.149 10.462-25.263-5.8105-1.8937-8.5757 1.9828-9.7468 4.5494h-0.23457c0.00881-0.4826 0.21718-9.9226 0.83276-10.481 1.3506-1.2255 3.0613-1.131 3.0613-1.131l-0.03519-1.3343-8.9375 0.03813-0.03519 1.3216s1.699-0.08178 3.0496 1.1437c0.61566 0.55866 0.83573 9.9796 0.84449 10.456h-0.09384c-0.94595-2.0972-4.5354-6.4387-8.484-4.7853-11.546 4.6349 5.4557 17.824 9.3167 25.486z" fill-rule="evenodd"/>
 <path d="m117.61 161.74c1.1186-2e-5 1.9604-0.44207 2.5252-1.3262 0.55378-0.87073 0.83067-2.1835 0.83066-3.9383s-0.27688-3.0743-0.83066-3.9584c-0.56484-0.87073-1.4066-1.3061-2.5252-1.3061-1.1297 0-1.9714 0.43536-2.5252 1.3061-0.56483 0.88411-0.84726 2.2036-0.84727 3.9584s0.28244 3.0676 0.84727 3.9383c0.55379 0.88411 1.3955 1.3262 2.5252 1.3262m-7.9079 14.407v-5.5458c1.0522 0.60278 2.0434 1.0448 2.9738 1.3262 0.93036 0.29468 1.8386 0.44204 2.7246 0.44206 1.905-2e-5 3.3891-0.64302 4.4523-1.929 1.0633-1.2726 1.6835-3.1681 1.8607-5.6865-0.73097 0.65637-1.5229 1.1453-2.3757 1.4668-0.8528 0.33488-1.7831 0.50232-2.791 0.50234-2.5363-2e-5 -4.5797-0.89753-6.1303-2.6925-1.5616-1.795-2.3424-4.146-2.3425-7.0528 1e-5 -3.215 0.86944-5.7936 2.6083-7.736 1.7389-1.929 4.0703-2.8935 6.9942-2.8935 3.223 0 5.7205 1.3128 7.4926 3.9383 1.761 2.639 2.6415 6.3764 2.6415 11.212 0 4.9564-1.03 8.8478-3.0901 11.674-2.0711 2.8399-4.9064 4.2598-8.506 4.2598-1.1408-3e-5 -2.2483-0.1072-3.3226-0.3215s-2.1376-0.53586-3.1898-0.96449"/>
 <g transform="matrix(.59314 0 0 .23894 -103.05 45.256)">
  <path d="m260.18 149.6c-4.8362 19.241-19.676 52.006-10.275 62.122 5.7065 4.6568 8.4221-4.8759 9.5723-11.187h0.23038c-0.00865 1.1867-0.2133 24.4-0.81785 25.773-1.3264 3.0135-3.0065 2.7811-3.0065 2.7811l0.03456 3.2811 8.7775-0.09375 0.03456-3.2499s-1.6686 0.2011-2.995-2.8124c-0.60464-1.3738-0.82077-24.54-0.82937-25.711h0.09215c0.92901 5.157 4.4542 15.833 8.3321 11.767 11.339-11.397-5.358-43.83-9.1499-62.671z" fill-rule="evenodd"/>
 </g>
 <g transform="matrix(-.59314 0 0 -.23894 241.05 136.52)">
  <path d="m260.18 149.6c-4.8362 19.241-19.676 52.006-10.275 62.122 5.7065 4.6568 8.4221-4.8759 9.5723-11.187h0.23038c-0.00865 1.1867-0.2133 24.4-0.81785 25.773-1.3264 3.0135-3.0065 2.7811-3.0065 2.7811l0.03456 3.2811 8.7775-0.09375 0.03456-3.2499s-1.6686 0.2011-2.995-2.8124c-0.60464-1.3738-0.82077-24.54-0.82937-25.711h0.09215c0.92901 5.157 4.4542 15.833 8.3321 11.767 11.339-11.397-5.358-43.83-9.1499-62.671z" fill-rule="evenodd"/>
 </g>
</svg>
